<?xml version="1.0" encoding="UTF-8"?>
<svg id="Layer_2" data-name="Layer 2" xmlns="http://www.w3.org/2000/svg" viewBox="0 0 246.4 64.15">
  <defs>
    <style>
      .cls-1 {
        fill: #2d2d2d;
      }

      .cls-1, .cls-2 {
        stroke-width: 0px;
      }

      .cls-2 {
        fill: #ff7300;
      }
    </style>
  </defs>
  <g id="Layer_1-2" data-name="Layer 1">
    <path class="cls-1" d="m47.25,3.86C41.38-.46,34.78-.07,32.83.08c-.36.03-.62.06-.8.08-2.07.21-7.6.86-13.04,4.96-7.6,5.74-9.9,13.54-10.28,15.65L0,63.81h0c6.54,0,12.18-4.6,13.49-11.01l2.9-14.15,2.73-15.42h0c.01-.1.03-.19.05-.29.74-3.83,2.48-6.95,5.24-9.37,2.76-2.42,5.94-3.63,9.54-3.63s5.98,1,7.48,2.99c1.49,2,2.23,4.18,2.23,6.55,0,.96-.11,2-.33,3.12-.79,3.83-2.55,6.94-5.28,9.33-2.73,2.4-5.9,3.59-9.5,3.59s-6.11-1.15-7.86-3.46c-.07-.09-.14-.18-.2-.28l-1.49,9.9c2.81,2.48,6.56,3.72,11.24,3.72,5.79,0,10.92-2.02,15.37-6.08,4.44-4.05,7.31-9.31,8.61-15.79.15-.77.22-1.33.23-1.45.18-1.4.72-5.51-.64-9.59-1.64-4.92-5.32-7.71-6.56-8.62Z"/>
    <path class="cls-1" d="m59.29,21.92c1.29-6.47,4.17-11.72,8.61-15.75C72.35,2.15,77.47.14,83.27.14c6.64,0,11.43,2.51,14.36,7.52l1.35-6.5h10.56l-8.61,43.24h-10.56l.93-4.64c-4.11,3.77-9.01,5.66-14.69,5.66-6.47,0-11.08-1.86-13.81-5.57-2.73-3.71-4.1-7.74-4.1-12.08,0-1.86.2-3.8.59-5.83Zm12.41,10.13c1.74,2.31,4.36,3.46,7.85,3.46s6.77-1.2,9.5-3.59c2.73-2.39,4.49-5.5,5.28-9.33.22-1.13.34-2.17.34-3.12,0-2.36-.75-4.54-2.24-6.54-1.49-2-3.98-3-7.47-3s-6.78,1.21-9.54,3.63c-2.76,2.42-4.5,5.55-5.24,9.37-.23,1.13-.34,2.17-.34,3.12,0,2.36.62,4.36,1.86,6Z"/>
    <path class="cls-1" d="m105.63,62.96l3.55-9.46c1.35.45,2.93.68,4.73.68,2.2,0,3.88-.42,5.07-1.27s2.5-2.56,3.97-5.15l1.18-2.11L113.99,1.15h11.23l4.48,21.62,1.77,9.46,4.73-9.46,11.23-21.62h12.16l-27.45,51.26c-2.25,4.22-4.74,7.23-7.47,9.04-2.73,1.8-6.21,2.7-10.43,2.7-3.15,0-6.02-.39-8.61-1.18Z"/>
    <path class="cls-2" d="m172.34,21.92l-9.8-20.77h11.23l6.08,13.51,5.32-6.59,5.83-6.92h13l-18.66,22.04,10.47,21.2h-11.4l-6.59-13.85-11.74,13.85h-13.26l19.51-22.46Z"/>
    <path class="cls-2" d="m208.49,1.15h10.39l-1.01,5.32c4.33-4,9.15-6,14.44-6s8.68,1.41,10.85,4.22c2.17,2.82,3.25,5.86,3.25,9.12,0,1.41-.17,2.87-.51,4.39l-7.01,36.7h0c-5.76,0-10.19-6.57-9.04-12.21l4.39-22.13c.28-1.29.42-2.48.42-3.55,0-4.33-2.22-6.5-6.67-6.5-3.21,0-5.91.99-8.11,2.96-2.2,1.97-3.63,4.7-4.31,8.19l-4.56,22.72h-11.23L208.49,1.15Z"/>
  </g>
</svg>